<svg width="169" height="96" viewBox="0 0 169 96" fill="none" xmlns="http://www.w3.org/2000/svg">
<path d="M7.27163 16.6806C6.98383 17.7678 7.11495 19.2004 6.88151 22.2127C6.64807 25.225 6.42104 27.3228 6.10765 31.7421C5.79427 36.1583 5.612 39.1674 5.30821 44.303C5.00442 49.4355 4.86691 52.2751 4.58871 57.4139C4.3105 62.5496 4.12501 65.3796 3.91076 69.9844C3.69971 74.5924 3.63576 76.9044 3.52064 80.4444C3.40872 83.9875 3.36395 85.4617 3.34477 87.6938C3.32558 89.9258 3.27761 90.5686 3.42471 91.6015C3.57181 92.6344 3.85001 92.628 4.08025 92.8582C4.30729 93.0884 4.45119 93.0277 4.5727 92.7527C4.69422 92.4777 4.72939 92.5 4.69102 91.4863C4.64945 90.4726 4.4448 89.8843 4.36486 87.6778C4.28491 85.4745 4.24974 83.9939 4.28812 80.4636C4.32649 76.93 4.37444 74.618 4.55672 70.0132C4.74219 65.4116 4.92448 62.5816 5.20908 57.4459C5.49368 52.3135 5.65037 49.4738 5.98614 44.3446C6.3219 39.2153 6.53296 36.2094 6.88791 31.7997C7.23967 27.3899 7.4635 25.2922 7.7513 22.2863C8.0359 19.2804 8.41645 17.8925 8.32051 16.7701C8.22458 15.6509 7.55943 15.5901 7.27163 16.6806Z" fill="#FFBE52" stroke="#FFBE52" stroke-width="5"/>
<path d="M4.1364 19.7984C4.88468 19.1365 5.23324 17.5856 6.85772 15.7596C8.48219 13.9369 9.57264 12.5842 12.2556 10.6815C14.9417 8.77567 16.8284 7.53492 20.2852 6.23982C23.742 4.94152 25.8717 4.61215 29.5396 4.19324C33.2107 3.77433 35.3244 3.68479 38.6373 4.13888C41.9502 4.59616 43.6546 5.17177 46.1073 6.47326C48.5568 7.77476 49.6345 8.70851 50.9008 10.6496C52.1639 12.5874 52.4517 13.7578 52.4326 16.1721C52.4134 18.5865 52.0105 20.0351 50.7985 22.7276C49.5897 25.4201 48.64 26.9391 46.3855 29.6316C44.1311 32.3241 42.4555 33.7919 39.5263 36.1903C36.6003 38.5886 34.6561 39.7302 31.7429 41.6201C28.8265 43.5068 27.2084 44.4022 24.9508 45.6301C22.69 46.8613 21.8074 47.1331 20.4483 47.7663C19.086 48.4026 18.5552 48.4474 18.1491 48.8023C17.7462 49.1605 17.8709 49.5506 18.4273 49.5538C18.9805 49.557 19.5146 49.4259 20.9184 48.8247C22.3254 48.2235 23.1952 47.8366 25.4592 46.5447C27.7233 45.2528 29.3126 44.3062 32.2322 42.3684C35.1549 40.4305 37.1024 39.2825 40.0699 36.8522C43.0375 34.4187 44.7483 32.9541 47.0699 30.2104C49.3915 27.4635 50.4051 25.9318 51.6811 23.1241C52.9538 20.3197 53.4335 18.7815 53.443 16.1785C53.4494 13.5755 53.1041 12.2133 51.7258 10.1091C50.3444 8.005 49.1292 7.02008 46.5358 5.65782C43.9424 4.29557 42.1709 3.75835 38.7524 3.29787C35.334 2.84058 33.2043 2.9461 29.4469 3.36821C25.6927 3.78712 23.5278 4.10051 19.975 5.402C16.4223 6.70031 14.4685 7.93785 11.6832 9.86292C8.90111 11.788 7.76908 13.1854 6.05507 15.0305C4.34106 16.8756 3.49684 18.1292 3.1131 19.0821C2.72937 20.0383 3.38492 20.4636 4.1364 19.7984Z" fill="#FFBE52" stroke="#FFBE52" stroke-width="5"/>
<path d="M81.7131 43.3757C81.1247 43.1102 80.306 43.0879 78.8894 43.3948C77.4728 43.7018 76.5774 44.0344 74.6364 44.9138C72.6953 45.7932 71.2979 46.4263 69.1841 47.795C67.0704 49.1604 65.8808 50.107 64.0741 51.757C62.2641 53.4071 61.2696 54.3728 60.1376 56.0421C59.0056 57.7145 58.6186 58.5843 58.414 60.1129C58.2093 61.6414 58.5387 62.3673 59.1143 63.688C59.6899 65.0087 60.2655 65.5811 61.2888 66.7195C62.3121 67.8579 63.0508 68.3695 64.2276 69.3832C65.4075 70.4001 66.2773 71.0109 67.1823 71.7944C68.0841 72.5746 68.4646 72.872 68.7428 73.2941C69.021 73.7162 69.005 73.4828 68.5733 73.9049C68.1384 74.327 67.8379 74.7523 66.5779 75.4047C65.318 76.057 64.1316 76.4887 62.2673 77.1634C60.403 77.8414 59.1399 78.2603 57.2532 78.7847C55.3697 79.3092 54.2569 79.4818 52.8371 79.7856C51.4204 80.0894 50.896 80.115 50.1637 80.3005C49.4282 80.4859 49.3834 80.5019 49.1628 80.7098C48.9421 80.9176 48.8302 81.0583 49.0573 81.3429C49.2843 81.6275 49.4602 82.0656 50.298 82.1328C51.139 82.1999 51.7626 82.0113 53.2496 81.6819C54.7365 81.3525 55.8078 81.036 57.7329 80.4859C59.6579 79.9359 60.9242 79.5778 62.8781 78.9318C64.8351 78.2858 66.0247 77.9917 67.5117 77.2594C68.9986 76.5271 69.6702 76.2169 70.3129 75.264C70.9525 74.3142 71.0292 73.5403 70.7159 72.4979C70.4025 71.4554 69.7693 71.0109 68.7428 70.058C67.7163 69.105 66.7858 68.6733 65.5802 67.7332C64.3779 66.7962 63.6903 66.3293 62.7214 65.3636C61.7493 64.4011 61.2792 63.9246 60.7356 62.9109C60.1887 61.8972 59.8818 61.5135 60.0001 60.3015C60.1184 59.0864 60.3295 58.3477 61.3272 56.8415C62.3249 55.3354 63.2682 54.3345 64.995 52.7675C66.7186 51.2038 67.8986 50.2829 69.9548 49.0133C72.0142 47.7438 73.4148 47.1842 75.2855 46.4167C77.1594 45.6493 78.0068 45.5246 79.3147 45.1824C80.6258 44.8402 81.3581 45.0705 81.8378 44.7059C82.3174 44.3446 82.3014 43.6379 81.7131 43.3757Z" fill="#FFBE52" stroke="#FFBE52" stroke-width="5"/>
<path d="M102.066 41.1788C101.586 40.9166 101.049 40.8175 99.9459 41.0925C98.8459 41.3707 98.0784 41.8088 96.5563 42.5635C95.0341 43.3149 93.8478 43.7946 92.3384 44.8531C90.8291 45.9147 90.0808 46.5895 89.0095 47.8622C87.9383 49.1349 87.3403 49.8416 86.9821 51.2231C86.6208 52.6013 86.6655 53.4008 87.206 54.7662C87.7432 56.1285 88.3764 56.8064 89.6715 58.0407C90.9666 59.2719 91.9451 59.7548 93.6783 60.9251C95.4147 62.0955 96.5723 62.6935 98.3439 63.8863C100.119 65.0791 101.187 65.7762 102.546 66.8826C103.902 67.9891 104.506 68.4943 105.126 69.4121C105.75 70.3298 105.772 70.6496 105.651 71.4682C105.529 72.2837 105.334 72.6962 104.519 73.4988C103.703 74.2983 102.971 74.7332 101.574 75.4751C100.173 76.2169 99.236 76.6902 97.522 77.2083C95.8112 77.7263 94.6952 77.9501 93.0131 78.0717C91.3279 78.19 90.2854 78.0909 89.1055 77.8095C87.9255 77.5312 87.804 77.0772 87.1068 76.671C86.4097 76.2649 86.074 75.8204 85.6199 75.7788C85.1658 75.7405 84.7948 75.9451 84.8428 76.4696C84.8876 76.9908 85.0826 77.7391 85.8501 78.3978C86.6208 79.0566 87.222 79.4659 88.6833 79.7601C90.1447 80.0543 91.2895 80.0319 93.1602 79.8624C95.0277 79.6929 96.1694 79.4499 98.0273 78.9127C99.8884 78.3754 100.867 77.9757 102.453 77.1731C104.039 76.3672 104.934 75.9899 105.961 74.8963C106.984 73.7994 107.445 72.9904 107.576 71.6953C107.704 70.4034 107.41 69.6423 106.61 68.4239C105.807 67.2056 105.043 66.7771 103.566 65.6099C102.088 64.4395 101.011 63.7936 99.22 62.588C97.4261 61.3792 96.2685 60.7429 94.6024 59.5789C92.9396 58.4149 92.0282 57.8681 90.8994 56.7648C89.7706 55.6616 89.3741 55.0668 88.9552 54.0595C88.5394 53.0522 88.5139 52.7228 88.8144 51.7347C89.115 50.7466 89.5276 50.1582 90.4581 49.1189C91.3887 48.0764 92.0634 47.4433 93.4704 46.5351C94.8775 45.6269 96.0446 45.2112 97.4964 44.5781C98.9482 43.9449 99.7541 43.801 100.726 43.3661C101.698 42.9312 102.085 42.8417 102.354 42.4036C102.622 41.9687 102.549 41.441 102.066 41.1788Z" fill="#FFBE52" stroke="#FFBE52" stroke-width="5"/>
<path d="M137.521 8.10413C137.121 8.67333 137.092 9.40882 136.737 11.2347C136.382 13.0607 136.213 14.2854 135.752 17.2274C135.289 20.1726 134.978 22.2127 134.425 25.9541C133.872 29.6923 133.511 31.9884 132.983 35.9216C132.452 39.8549 132.129 41.9846 131.784 45.6237C131.439 49.266 131.397 51.1175 131.256 54.1234C131.112 57.1261 131.004 58.5172 131.068 60.6437C131.128 62.7734 131.375 63.5824 131.566 64.7624C131.758 65.9392 131.803 66.2046 132.024 66.534C132.244 66.8634 132.583 66.5948 132.673 66.4125C132.759 66.227 132.724 65.6034 132.462 65.6162C132.2 65.629 131.407 66.1758 131.362 66.47C131.32 66.761 131.857 67.0712 132.241 67.0776C132.625 67.084 133.079 67.0233 133.28 66.5052C133.482 65.984 133.456 65.6642 133.248 64.4778C133.041 63.2914 132.455 62.6327 132.244 60.5669C132.03 58.5044 132.113 57.1293 132.187 54.1554C132.26 51.1814 132.286 49.3267 132.609 45.7004C132.935 42.0774 133.261 39.9572 133.814 36.0367C134.364 32.1163 134.755 29.8235 135.369 26.1012C135.986 22.379 136.35 20.342 136.891 17.4225C137.431 14.5029 137.703 13.3069 138.071 11.5002C138.442 9.69342 138.848 9.06665 138.739 8.38552C138.627 7.70759 137.924 7.53492 137.521 8.10413Z" fill="#FFBE52" stroke="#FFBE52" stroke-width="5"/>
<path d="M112.153 47.0373C112.876 47.114 113.493 46.6567 115.488 46.2314C117.481 45.8029 118.897 45.416 122.121 44.9043C125.341 44.3895 127.57 44.0505 131.596 43.6636C135.625 43.2799 138.09 43.1775 142.257 42.9761C146.424 42.7746 148.825 42.7554 152.426 42.6627C156.023 42.5667 157.744 42.5316 160.251 42.4996C162.761 42.4708 164.021 42.7011 164.961 42.5124C165.901 42.3237 165.898 41.7321 164.955 41.5563C164.012 41.3804 162.748 41.5818 160.238 41.633C157.728 41.6874 156.004 41.7129 152.4 41.8185C148.796 41.9272 146.395 41.9816 142.219 42.1734C138.042 42.3653 135.567 42.442 131.519 42.7778C127.467 43.1136 125.219 43.4046 121.964 43.8491C118.705 44.2968 117.257 44.6133 115.236 45.0131C113.215 45.4128 112.476 45.4448 111.859 45.8477C111.245 46.2538 111.427 46.9605 112.153 47.0373Z" fill="#FFBE52" stroke="#FFBE52" stroke-width="5"/>
</svg>
