<svg width="517" height="290" viewBox="0 0 517 290" fill="none" xmlns="http://www.w3.org/2000/svg">
<path d="M17.3637 47.059C16.4637 50.459 16.8737 54.939 16.1437 64.359C15.4137 73.779 14.7037 80.339 13.7237 94.159C12.7437 107.969 12.1737 117.379 11.2237 133.439C10.2737 149.489 9.84374 158.369 8.97374 174.439C8.10374 190.499 7.52369 199.349 6.85369 213.749C6.19369 228.159 5.99372 235.389 5.63372 246.459C5.28372 257.539 5.14373 262.149 5.08373 269.129C5.02373 276.109 4.87373 278.119 5.33373 281.349C5.79373 284.579 6.66372 284.559 7.38372 285.279C8.09372 285.999 8.5437 285.809 8.9237 284.949C9.3037 284.089 9.41369 284.159 9.29369 280.989C9.16369 277.819 8.52373 275.979 8.27373 269.079C8.02373 262.189 7.91374 257.559 8.03374 246.519C8.15374 235.469 8.30371 228.239 8.87371 213.839C9.45371 199.449 10.0237 190.599 10.9137 174.539C11.8037 158.489 12.2937 149.609 13.3437 133.569C14.3937 117.529 15.0537 108.129 16.1637 94.339C17.2637 80.549 17.9637 73.989 18.8637 64.589C19.7537 55.189 20.9437 50.849 20.6437 47.339C20.3437 43.839 18.2637 43.649 17.3637 47.059Z" fill="#FFBE52" stroke="#FFBE52" stroke-width="8"/>
<path d="M7.5537 56.809C9.8937 54.739 10.9837 49.889 16.0637 44.179C21.1437 38.479 24.5537 34.249 32.9437 28.299C41.3437 22.339 47.2437 18.459 58.0537 14.409C68.8637 10.349 75.5237 9.31903 86.9937 8.00903C98.4737 6.69903 105.084 6.41901 115.444 7.83901C125.804 9.26901 131.134 11.069 138.804 15.139C146.464 19.209 149.834 22.129 153.794 28.199C157.744 34.259 158.644 37.919 158.584 45.469C158.524 53.019 157.264 57.549 153.474 65.969C149.694 74.389 146.724 79.139 139.674 87.559C132.624 95.979 127.384 100.569 118.224 108.069C109.074 115.569 102.994 119.139 93.8837 125.049C84.7637 130.949 79.7037 133.749 72.6437 137.589C65.5737 141.439 62.8137 142.289 58.5637 144.269C54.3037 146.259 52.6437 146.399 51.3737 147.509C50.1137 148.629 50.5037 149.849 52.2437 149.859C53.9737 149.869 55.6437 149.459 60.0337 147.579C64.4337 145.699 67.1537 144.489 74.2337 140.449C81.3137 136.409 86.2838 133.449 95.4137 127.389C104.554 121.329 110.644 117.739 119.924 110.139C129.204 102.529 134.554 97.949 141.814 89.369C149.074 80.779 152.244 75.989 156.234 67.209C160.214 58.439 161.714 53.629 161.744 45.489C161.764 37.349 160.684 33.089 156.374 26.509C152.054 19.929 148.254 16.849 140.144 12.589C132.034 8.32901 126.494 6.64904 115.804 5.20904C105.114 3.77904 98.4537 4.10901 86.7037 5.42901C74.9637 6.73901 68.1937 7.71902 57.0837 11.789C45.9737 15.849 39.8637 19.719 31.1537 25.739C22.4537 31.759 18.9137 36.129 13.5537 41.899C8.1937 47.669 5.55369 51.589 4.35369 54.569C3.15369 57.559 5.2037 58.889 7.5537 56.809Z" fill="#FFBE52" stroke="#FFBE52" stroke-width="8"/>
<path d="M250.144 130.539C248.304 129.709 245.744 129.639 241.314 130.599C236.884 131.559 234.084 132.599 228.014 135.349C221.944 138.099 217.574 140.079 210.964 144.359C204.354 148.629 200.634 151.589 194.984 156.749C189.324 161.909 186.214 164.929 182.674 170.149C179.134 175.379 177.924 178.099 177.284 182.879C176.644 187.659 177.674 189.929 179.474 194.059C181.274 198.189 183.074 199.979 186.274 203.539C189.474 207.099 191.784 208.699 195.464 211.869C199.154 215.049 201.874 216.959 204.704 219.409C207.524 221.849 208.714 222.779 209.584 224.099C210.454 225.419 210.404 224.689 209.054 226.009C207.694 227.329 206.754 228.659 202.814 230.699C198.874 232.739 195.164 234.089 189.334 236.199C183.504 238.319 179.554 239.629 173.654 241.269C167.764 242.909 164.284 243.449 159.844 244.399C155.414 245.349 153.774 245.429 151.484 246.009C149.184 246.589 149.044 246.639 148.354 247.289C147.664 247.939 147.314 248.379 148.024 249.269C148.734 250.159 149.284 251.529 151.904 251.739C154.534 251.949 156.484 251.359 161.134 250.329C165.784 249.299 169.134 248.309 175.154 246.589C181.174 244.869 185.134 243.749 191.244 241.729C197.364 239.709 201.084 238.789 205.734 236.499C210.384 234.209 212.484 233.239 214.494 230.259C216.494 227.289 216.734 224.869 215.754 221.609C214.774 218.349 212.794 216.959 209.584 213.979C206.374 210.999 203.464 209.649 199.694 206.709C195.934 203.779 193.784 202.319 190.754 199.299C187.714 196.289 186.244 194.799 184.544 191.629C182.834 188.459 181.874 187.259 182.244 183.469C182.614 179.669 183.274 177.359 186.394 172.649C189.514 167.939 192.464 164.809 197.864 159.909C203.254 155.019 206.944 152.139 213.374 148.169C219.814 144.199 224.194 142.449 230.044 140.049C235.904 137.649 238.554 137.259 242.644 136.189C246.744 135.119 249.034 135.839 250.534 134.699C252.034 133.569 251.984 131.359 250.144 130.539Z" fill="#FFBE52" stroke="#FFBE52" stroke-width="8"/>
<path d="M313.794 123.669C312.294 122.849 310.614 122.539 307.164 123.399C303.724 124.269 301.324 125.639 296.564 127.999C291.804 130.349 288.094 131.849 283.374 135.159C278.654 138.479 276.314 140.589 272.964 144.569C269.614 148.549 267.744 150.759 266.624 155.079C265.494 159.389 265.634 161.889 267.324 166.159C269.004 170.419 270.984 172.539 275.034 176.399C279.084 180.249 282.144 181.759 287.564 185.419C292.994 189.079 296.614 190.949 302.154 194.679C307.704 198.409 311.044 200.589 315.294 204.049C319.534 207.509 321.424 209.089 323.364 211.959C325.314 214.829 325.384 215.829 325.004 218.389C324.624 220.939 324.014 222.229 321.464 224.739C318.914 227.239 316.624 228.599 312.254 230.919C307.874 233.239 304.944 234.719 299.584 236.339C294.234 237.959 290.744 238.659 285.484 239.039C280.214 239.409 276.954 239.099 273.264 238.219C269.574 237.349 269.194 235.929 267.014 234.659C264.834 233.389 263.784 231.999 262.364 231.869C260.944 231.749 259.784 232.389 259.934 234.029C260.074 235.659 260.684 237.999 263.084 240.059C265.494 242.119 267.374 243.399 271.944 244.319C276.514 245.239 280.094 245.169 285.944 244.639C291.784 244.109 295.354 243.349 301.164 241.669C306.984 239.989 310.044 238.739 315.004 236.229C319.964 233.709 322.764 232.529 325.974 229.109C329.174 225.679 330.614 223.149 331.024 219.099C331.424 215.059 330.504 212.679 328.004 208.869C325.494 205.059 323.104 203.719 318.484 200.069C313.864 196.409 310.494 194.389 304.894 190.619C299.284 186.839 295.664 184.849 290.454 181.209C285.254 177.569 282.404 175.859 278.874 172.409C275.344 168.959 274.104 167.099 272.794 163.949C271.494 160.799 271.414 159.769 272.354 156.679C273.294 153.589 274.584 151.749 277.494 148.499C280.404 145.239 282.514 143.259 286.914 140.419C291.314 137.579 294.964 136.279 299.504 134.299C304.044 132.319 306.564 131.869 309.604 130.509C312.644 129.149 313.854 128.869 314.694 127.499C315.534 126.139 315.304 124.489 313.794 123.669Z" fill="#FFBE52" stroke="#FFBE52" stroke-width="8"/>
<path d="M424.674 20.239C423.424 22.019 423.334 24.319 422.224 30.029C421.114 35.739 420.584 39.569 419.144 48.769C417.694 57.979 416.724 64.359 414.994 76.059C413.264 87.749 412.134 94.929 410.484 107.229C408.824 119.529 407.814 126.189 406.734 137.569C405.654 148.959 405.524 154.749 405.084 164.149C404.634 173.539 404.294 177.889 404.494 184.539C404.684 191.199 405.454 193.729 406.054 197.419C406.654 201.099 406.794 201.929 407.484 202.959C408.174 203.989 409.234 203.149 409.514 202.579C409.784 201.999 409.674 200.049 408.854 200.089C408.034 200.129 405.554 201.839 405.414 202.759C405.284 203.669 406.964 204.639 408.164 204.659C409.364 204.679 410.784 204.489 411.414 202.869C412.044 201.239 411.964 200.239 411.314 196.529C410.664 192.819 408.834 190.759 408.174 184.299C407.504 177.849 407.764 173.549 407.994 164.249C408.224 154.949 408.304 149.149 409.314 137.809C410.334 126.479 411.354 119.849 413.084 107.589C414.804 95.329 416.024 88.159 417.944 76.519C419.874 64.879 421.014 58.509 422.704 49.379C424.394 40.249 425.244 36.509 426.394 30.859C427.554 25.209 428.824 23.249 428.484 21.119C428.134 18.999 425.934 18.459 424.674 20.239Z" fill="#FFBE52" stroke="#FFBE52" stroke-width="8"/>
<path d="M345.334 141.989C347.594 142.229 349.524 140.799 355.764 139.469C361.994 138.129 366.424 136.919 376.504 135.319C386.574 133.709 393.544 132.649 406.134 131.439C418.734 130.239 426.444 129.919 439.474 129.289C452.504 128.659 460.014 128.599 471.274 128.309C482.524 128.009 487.904 127.899 495.744 127.799C503.594 127.709 507.534 128.429 510.474 127.839C513.414 127.249 513.404 125.399 510.454 124.849C507.504 124.299 503.554 124.929 495.704 125.089C487.854 125.259 482.464 125.339 471.194 125.669C459.924 126.009 452.414 126.179 439.354 126.779C426.294 127.379 418.554 127.619 405.894 128.669C393.224 129.719 386.194 130.629 376.014 132.019C365.824 133.419 361.294 134.409 354.974 135.659C348.654 136.909 346.344 137.009 344.414 138.269C342.494 139.539 343.064 141.749 345.334 141.989Z" fill="#FFBE52" stroke="#FFBE52" stroke-width="8"/>
</svg>
