<svg width="568" height="564" viewBox="0 0 568 564" fill="none" xmlns="http://www.w3.org/2000/svg">
<path d="M6.31983 67.5588C5.67869 70.1376 6.40532 72.7876 7.10345 80.0824C7.81583 87.3629 8.41423 92.7485 9.83899 103.99C11.2637 115.245 12.2468 123.167 14.2415 136.318C16.2504 149.468 17.6467 156.578 19.8265 169.742C22.0064 182.907 23.1462 189.96 25.1267 202.141C27.1071 214.323 28.3751 220.293 29.7286 230.665C31.0964 241.023 31.4526 245.853 31.937 253.974C32.4357 262.095 32.0367 265.785 32.1792 271.257C32.3359 276.728 32.3074 278.452 32.7064 281.33C33.0911 284.208 33.4187 284.763 34.1311 285.647C34.8435 286.53 35.4704 286.63 36.2825 285.775C37.1089 284.92 37.8213 284.322 38.2487 281.358C38.6619 278.409 38.7331 276.542 38.4054 270.986C38.0635 265.429 37.5505 261.739 36.5817 253.561C35.5986 245.383 35.157 240.51 33.547 230.124C31.937 219.723 30.5977 213.768 28.5461 201.572C26.4802 189.39 25.3261 182.352 23.2317 169.187C21.1373 156.022 19.855 148.912 18.0741 135.776C16.3074 122.626 15.5238 114.718 14.3555 103.477C13.1872 92.2356 13.0304 86.8215 12.2183 79.541C11.4205 72.2747 11.5202 69.5249 10.3377 67.1171C9.1551 64.7235 6.96098 64.9657 6.31983 67.5588Z" fill="#FFBE52" stroke="#FFBE52" stroke-width="6"/>
<path d="M7.43122 67.63C9.56836 64.6238 10.0385 58.4688 13.7714 50.9746C17.49 43.4661 19.7126 37.7101 26.0671 30.1304C32.4357 22.5364 36.4678 17.6067 45.5863 13.0617C54.6905 8.51676 61.1731 7.90412 71.6451 7.40545C82.1171 6.92103 88.0726 7.79014 97.9319 10.6112C107.805 13.4322 113.22 16.0395 120.942 21.5106C128.678 26.9816 132.197 30.7573 136.586 37.9665C140.974 45.1758 142.441 49.4216 142.912 57.5427C143.382 65.6781 142.057 69.9381 138.951 78.6007C135.845 87.2632 133.366 92.5348 127.396 100.87C121.426 109.19 116.895 113.051 109.116 120.246C101.337 127.441 96.5926 131.203 88.5143 136.845C80.4359 142.501 75.8624 144.852 68.7101 148.499C61.5578 152.147 57.4688 152.888 52.7528 155.096C48.0368 157.29 46.7973 157.718 45.1303 159.498C43.4491 161.279 43.8766 162.79 44.3895 164.001C44.9024 165.212 46.9255 165.896 47.6949 165.554C48.45 165.226 48.564 162.818 48.2078 162.291C47.8516 161.764 45.9994 162.633 45.8997 162.961C45.8 163.274 45.7857 164.229 47.7234 163.887C49.6611 163.531 50.9006 163.374 55.5881 161.194C60.2755 159 64.0654 157.119 71.1607 152.973C78.256 148.813 82.8865 146.334 91.0503 140.407C99.2142 134.48 104.016 130.747 111.98 123.338C119.944 115.915 124.646 111.997 130.858 103.349C137.07 94.7004 139.777 89.2863 143.068 80.0682C146.359 70.8642 147.855 66.1483 147.3 57.2863C146.758 48.41 145.091 43.5373 140.304 35.7012C135.503 27.865 131.599 23.8899 123.35 18.1054C115.1 12.3209 109.415 9.68507 99.029 6.75006C88.6567 3.81506 82.5303 2.93171 71.4599 3.44462C60.3895 3.94329 53.4794 4.52744 43.7198 9.27189C33.946 14.0163 29.4437 19.2594 22.6049 27.1669C15.7518 35.0743 13.3867 41.0583 9.48287 48.8232C5.56478 56.5881 3.45614 62.2017 3.04296 65.963C2.62978 69.7244 5.27983 70.622 7.43122 67.63Z" fill="#FFBE52" stroke="#FFBE52" stroke-width="6"/>
<path d="M230.121 198.423C229.38 196.414 227.656 194.476 224.294 192.553C220.917 190.615 218.395 189.304 213.295 188.763C208.18 188.222 204.718 188.136 198.748 189.846C192.778 191.556 189.33 193.265 183.446 197.326C177.562 201.386 173.929 204.279 169.341 210.149C164.753 216.033 162.317 219.979 160.536 226.69C158.755 233.401 158.513 237.533 160.422 243.73C162.331 249.914 164.767 253.119 170.096 257.65C175.425 262.181 179.428 264.09 187.065 266.384C194.687 268.663 199.745 269.134 208.222 269.091C216.7 269.048 221.444 268.307 229.437 266.17C237.43 264.019 241.619 262.366 248.215 258.362C254.798 254.345 258.132 251.723 262.406 246.11C266.695 240.51 268.276 236.891 269.63 230.323C270.983 223.741 270.67 219.581 269.174 213.226C267.663 206.872 265.996 203.481 262.078 198.565C258.175 193.65 254.94 191.755 249.597 188.649C244.255 185.543 240.337 183.947 235.393 183.05C230.449 182.152 228.069 183.221 224.892 184.19C221.715 185.158 220.404 186.569 219.507 187.894C218.609 189.233 219.136 190.174 220.404 190.857C221.658 191.527 223.154 191.057 225.804 191.271C228.468 191.484 229.651 191.1 233.683 191.926C237.715 192.752 241.362 193.223 245.964 195.445C250.552 197.668 253.33 199.15 256.679 203.025C260.027 206.9 261.323 209.607 262.677 214.836C264.045 220.051 264.443 223.57 263.46 229.126C262.463 234.683 261.366 237.689 257.733 242.59C254.1 247.492 251.25 249.956 245.309 253.618C239.368 257.265 235.45 258.918 228.027 260.899C220.604 262.865 216.059 263.506 208.208 263.477C200.358 263.449 195.599 262.865 188.76 260.77C181.921 258.676 178.502 256.781 174.043 253.005C169.569 249.23 167.888 246.822 166.42 241.907C164.967 236.991 165.124 233.942 166.733 228.414C168.358 222.886 170.395 219.324 174.527 214.295C178.644 209.251 182.107 206.516 187.35 203.21C192.579 199.905 195.784 198.722 200.7 197.753C205.601 196.799 207.938 197.625 211.898 198.394C215.845 199.164 217.255 200.788 220.475 201.614C223.695 202.455 226.075 203.224 227.998 202.583C229.936 201.942 230.876 200.432 230.121 198.423Z" fill="#FFBE52" stroke="#FFBE52" stroke-width="6"/>
<path d="M368.494 175.541C367.71 173.703 366.143 172.122 362.852 170.483C359.546 168.845 357.138 167.933 351.995 167.363C346.852 166.779 343.09 167.092 337.135 167.62C331.179 168.147 327.788 168.574 322.218 169.985C316.661 171.395 313.085 171.78 309.338 174.701C305.576 177.621 303.767 180.471 303.453 184.588C303.14 188.706 304.052 191.37 307.742 195.274C311.446 199.192 315.023 200.631 321.961 204.15C328.914 207.655 333.544 209.28 342.478 212.856C351.425 216.432 357.267 218.298 366.656 222.031C376.045 225.764 381.602 227.844 389.423 231.534C397.26 235.224 400.921 237.219 405.794 240.496C410.652 243.773 412.476 245.639 413.758 247.919C415.055 250.199 414.713 249.871 412.234 251.908C409.755 253.946 407.575 255.513 401.377 258.106C395.179 260.713 390.179 262.494 381.245 264.931C372.312 267.381 366.271 268.635 356.711 270.316C347.137 271.983 341.637 272.924 333.416 273.308C325.195 273.707 320.821 273.351 315.621 272.268C310.421 271.185 309.11 270.06 307.4 267.88C305.69 265.7 306.588 264.076 307.072 261.354C307.557 258.647 309.053 257.18 309.822 254.302C310.592 251.41 311.532 248.817 310.933 246.922C310.321 245.041 308.739 244.029 306.773 244.827C304.807 245.625 302.684 247.677 301.088 250.925C299.493 254.174 298.538 256.781 298.78 261.07C299.008 265.344 299.136 268.92 302.271 272.325C305.405 275.73 308.155 276.87 314.438 278.11C320.736 279.349 325.081 279.078 333.701 278.523C342.335 277.967 347.764 276.956 357.566 275.331C367.354 273.721 373.409 272.681 382.656 270.43C391.903 268.193 396.889 266.826 403.814 264.104C410.738 261.369 414.186 260.5 417.277 256.767C420.355 253.048 420.896 249.671 419.244 245.44C417.605 241.223 414.585 239.342 409.042 235.652C403.5 231.947 399.639 230.58 391.532 226.961C383.425 223.328 377.883 221.319 368.494 217.5C359.09 213.682 353.263 211.673 344.586 207.855C335.895 204.036 331.35 202.042 325.081 198.394C318.812 194.747 316.305 192.268 313.213 189.618C310.136 186.968 309.466 186.612 309.651 185.158C309.851 183.719 311.261 183.705 314.196 182.394C317.145 181.084 319.653 179.744 324.369 178.619C329.085 177.479 332.476 176.966 337.762 176.724C343.048 176.467 346.381 176.809 350.812 177.365C355.243 177.935 356.725 179.06 359.917 179.516C363.108 179.986 365.046 180.471 366.756 179.687C368.465 178.889 369.263 177.393 368.494 175.541Z" fill="#FFBE52" stroke="#FFBE52" stroke-width="6"/>
<path d="M431.126 95.3701C430.143 97.3078 429.744 99.5446 430.285 104.759C430.827 109.988 432.024 113.507 433.819 121.5C435.628 129.493 436.853 135.263 439.29 144.738C441.74 154.213 443.365 159.328 446.029 168.859C448.693 178.405 450.317 183.848 452.626 192.425C454.948 201.016 455.888 204.592 457.584 211.773C459.293 218.954 460.262 222.288 461.146 228.329C462.029 234.37 461.488 237.305 461.986 241.992C462.485 246.665 462.984 248.731 463.653 251.737C464.323 254.729 464.423 255.898 465.349 256.98C466.289 258.063 467.258 258.291 468.326 257.151C469.395 256.026 470.392 254.544 470.691 251.31C470.991 248.076 470.521 245.825 469.808 240.995C469.11 236.165 468.611 233.287 467.187 227.189C465.748 221.077 464.65 217.671 462.656 210.476C460.661 203.267 459.621 199.748 457.227 191.171C454.82 182.594 453.181 177.137 450.631 167.605C448.081 158.074 446.585 152.973 444.447 143.498C442.31 134.024 441.384 128.211 439.974 120.261C438.563 112.31 438.321 108.777 437.366 103.733C436.412 98.6898 436.455 96.7378 435.201 95.0709C433.961 93.3897 432.109 93.4182 431.126 95.3701Z" fill="#FFBE52" stroke="#FFBE52" stroke-width="6"/>
<path d="M404.796 216.247C407.176 216.09 408.729 214.081 414.841 211.873C420.953 209.678 425.042 207.684 435.343 205.233C445.659 202.768 452.497 201.386 466.375 199.591C480.252 197.81 490.268 197.098 504.729 196.257C519.19 195.431 527.34 195.531 538.71 195.431C550.065 195.317 556.975 196.328 561.548 195.73C566.122 195.132 566.165 193.151 561.591 192.425C557.018 191.712 550.093 192.068 538.681 192.125C527.269 192.197 519.091 192.011 504.544 192.752C489.983 193.479 479.938 194.206 465.904 195.801C451.87 197.411 444.946 198.58 434.36 200.759C423.76 202.939 419.201 204.321 412.918 206.701C406.634 209.08 404.583 210.776 402.944 212.685C401.32 214.594 402.417 216.418 404.796 216.247Z" fill="#FFBE52" stroke="#FFBE52" stroke-width="6"/>
<path d="M43.5305 390.293C44.6418 387.942 44.2143 384.993 44.9267 378.297C45.6391 371.615 45.4254 366.799 47.0638 356.84C48.7023 346.895 50.1698 340.042 53.1048 328.53C56.054 317.004 58.0203 310.606 61.7816 299.237C65.5572 287.853 67.9793 281.869 71.9686 271.654C75.9579 261.424 78.0666 256.508 81.714 248.145C85.3756 239.796 87.0853 235.807 90.234 229.851C93.3827 223.896 95.3204 221.274 97.4576 218.382C99.5947 215.49 99.1958 214.606 100.934 215.418C102.672 216.216 103.385 217.285 106.134 222.414C108.884 227.543 110.993 231.874 114.683 241.035C118.373 250.211 120.467 256.879 124.599 268.234C128.731 279.604 131.053 285.887 135.342 297.855C139.616 309.823 141.924 316.391 146.028 328.088C150.131 339.8 152.097 345.912 155.858 356.398C159.606 366.884 161.614 371.672 164.777 380.534C167.955 389.381 169.593 393.684 171.716 400.68C173.839 407.69 174.167 410.81 175.392 415.54C176.631 420.284 176.916 421.766 177.857 424.373C178.797 426.981 179.182 427.821 180.122 428.591C181.077 429.36 181.889 429.303 182.587 428.249C183.271 427.18 183.67 426.183 183.556 423.276C183.442 420.384 183.413 418.589 182.017 413.745C180.621 408.886 179.253 405.951 176.589 399.013C173.939 392.074 172.186 387.828 168.738 379.052C165.29 370.261 163.239 365.545 159.363 355.116C155.488 344.687 153.479 338.617 149.376 326.92C145.258 315.223 142.95 308.655 138.79 296.63C134.63 284.619 132.421 278.336 128.589 266.852C124.756 255.354 123.003 248.686 119.613 239.169C116.236 229.652 115.082 225.021 111.677 219.279C108.272 213.538 106.448 211.514 102.601 210.446C98.7541 209.363 95.8904 210.531 92.4425 213.937C88.9945 217.342 88.3249 220.975 85.3756 227.486C82.4264 233.983 81.1013 237.915 77.6962 246.464C74.291 255.027 72.2536 259.942 68.3355 270.243C64.4316 280.558 62.0096 286.571 58.1342 298.012C54.2731 309.452 52.1788 315.835 48.9873 327.433C45.7958 339.03 44.1146 345.912 42.1769 355.971C40.2535 366.044 39.9258 370.959 39.3702 377.77C38.8003 384.594 38.5296 387.543 39.3559 390.051C40.1965 392.559 42.4191 392.644 43.5305 390.293Z" fill="#FFBE52" stroke="#FFBE52" stroke-width="6"/>
<path d="M33.4005 379.821C34.7255 380.633 35.3524 380.733 38.7291 380.391C42.12 380.049 44.1147 379.266 50.3124 378.14C56.5243 377.014 60.998 376.188 69.7603 374.778C78.5083 373.353 84.2644 372.754 94.0952 371.045C103.912 369.349 109.212 368.081 118.9 366.286C128.603 364.505 133.675 363.636 142.551 362.126C151.442 360.615 155.802 359.433 163.31 358.706C170.804 357.98 174.152 357.709 180.051 358.493C185.949 359.29 188.571 360.43 192.802 362.667C197.02 364.918 198.359 366.243 201.152 369.705C203.958 373.168 204.628 374.792 206.794 379.978C208.973 385.164 209.942 388.213 212.023 395.636C214.103 403.059 214.844 407.789 217.194 417.064C219.545 426.354 220.842 431.739 223.777 442.04C226.712 452.341 228.806 458.04 231.884 468.569C234.961 479.113 236.557 484.883 239.15 494.714C241.729 504.53 243.054 509.218 244.806 517.695C246.573 526.172 247.114 530.333 247.926 537.086C248.738 543.825 248.297 547.43 248.895 551.448C249.479 555.451 250.591 556.62 250.861 557.133C251.146 557.66 251.674 556.577 250.277 554.069C248.895 551.576 247.214 550.037 243.937 544.637C240.66 539.238 237.996 535.063 233.907 527.056C229.818 519.034 227.282 514.361 223.492 504.573C219.716 494.771 217.65 488.659 215 478.087C212.35 467.515 211.367 462.315 210.256 451.729C209.144 441.129 208.945 435.287 209.429 425.114C209.9 414.942 210.498 409.784 212.664 400.851C214.829 391.903 216.667 387.643 220.243 380.42C223.819 373.196 225.971 369.777 230.544 364.733C235.104 359.689 237.725 357.78 243.082 355.201C248.454 352.608 251.674 352.124 257.387 351.796C263.1 351.454 266.049 351.839 271.649 353.506C277.262 355.173 280.439 356.769 285.412 360.117C290.37 363.451 293.02 365.816 296.496 370.218C299.987 374.621 301.44 377.456 302.794 382.129C304.162 386.788 304.119 389.296 303.321 393.542C302.537 397.773 301.797 399.611 298.847 403.316C295.912 407.006 293.989 409.043 288.632 412.021C283.26 414.999 279.285 416.096 272.048 418.204C264.81 420.313 260.393 421.21 252.443 422.592C244.493 423.96 239.834 424.787 232.311 425.072C224.788 425.357 220.243 424.416 214.858 424.003C209.472 423.59 208.005 423.162 205.383 423.006C202.776 422.863 202.519 423.376 201.821 423.276C201.123 423.162 202.277 422.692 201.907 422.478C201.522 422.251 200.439 421.538 199.926 422.151C199.413 422.763 198.559 424.032 199.342 425.542C200.126 427.052 200.867 428.605 203.873 429.731C206.893 430.842 208.66 430.87 214.416 431.141C220.172 431.412 224.86 431.668 232.653 431.084C240.446 430.5 245.205 429.617 253.412 428.22C261.618 426.81 266.007 426.112 273.686 424.046C281.351 421.966 285.64 421.111 291.78 417.862C297.921 414.6 300.642 412.391 304.404 407.789C308.151 403.202 309.504 400.452 310.559 394.909C311.627 389.367 311.456 385.891 309.718 380.078C307.994 374.279 306.042 370.988 301.925 365.887C297.793 360.772 294.801 358.265 289.102 354.532C283.417 350.813 279.898 349.032 273.458 347.237C267.018 345.442 263.527 345 256.931 345.542C250.334 346.083 246.544 346.838 240.475 349.973C234.405 353.107 231.485 355.543 226.569 361.228C221.668 366.899 219.588 370.617 215.955 378.339C212.322 386.076 210.541 390.535 208.418 399.853C206.309 409.171 205.782 414.471 205.355 424.929C204.941 435.387 205.169 441.314 206.295 452.142C207.421 462.97 208.432 468.256 210.997 479.056C213.561 489.87 215.599 496.082 219.132 506.183C222.651 516.27 225.002 521.072 228.649 529.521C232.297 537.97 234.106 542.5 237.397 548.427C240.674 554.354 241.885 556.962 245.063 559.141C248.254 561.336 251.032 561.008 253.298 559.369C255.563 557.731 256.333 555.622 256.375 550.978C256.432 546.333 254.936 543.027 253.526 536.16C252.129 529.307 251.403 525.189 249.337 516.684C247.285 508.164 245.932 503.462 243.239 493.617C240.546 483.757 238.922 477.959 235.873 467.415C232.824 456.872 230.772 451.173 228.008 440.872C225.244 430.571 224.119 425.257 222.053 415.925C219.987 406.578 219.502 401.862 217.693 394.183C215.884 386.503 215.214 383.298 213.006 377.499C210.797 371.714 210.099 369.378 206.665 365.203C203.232 361.043 201.009 359.191 195.823 356.669C190.637 354.161 187.331 353.278 180.706 352.665C174.095 352.053 170.534 352.637 162.74 353.606C154.947 354.574 150.672 355.885 141.739 357.524C132.806 359.162 127.777 360.06 118.088 361.784C108.4 363.508 103.128 364.733 93.3116 366.144C83.495 367.54 77.796 367.939 68.991 368.794C60.1717 369.634 55.6695 369.762 49.2438 370.389C42.8039 371.03 40.2821 370.788 36.8484 371.971C33.429 373.168 32.7878 374.763 32.0897 376.345C31.4058 377.912 32.0755 379.009 33.4005 379.821Z" fill="#FFBE52" stroke="#FFBE52" stroke-width="6"/>
<path d="M369.145 369.378C368.105 370.931 367.122 372.356 367.635 376.901C368.162 381.431 369.686 384.551 371.738 392.06C373.775 399.583 375.485 404.598 377.879 414.486C380.272 424.373 381.498 430.671 383.706 441.513C385.914 452.37 387.14 458.354 388.892 468.74C390.644 479.141 391.286 484.399 392.482 493.474C393.693 502.564 394.335 506.967 394.905 514.148C395.46 521.328 394.848 524.748 395.318 529.364C395.788 533.994 396.529 535.861 397.255 537.286C397.982 538.71 399.592 538.34 398.922 536.474C398.267 534.607 397.056 532.94 393.964 527.968C390.858 522.981 388.009 519.676 383.435 511.569C378.876 503.462 375.642 497.962 371.14 487.405C366.637 476.847 364.13 470.35 360.953 458.767C357.761 447.184 356.479 441.257 355.225 429.503C353.971 417.734 353.629 411.28 354.669 399.967C355.709 388.655 356.892 382.685 360.44 372.911C363.987 363.137 366.623 358.621 372.408 351.084C378.192 343.547 381.483 339.999 389.362 335.255C397.241 330.51 402.641 328.858 411.831 327.362C421.006 325.866 426.321 326.478 435.282 327.775C444.244 329.071 449.587 330.795 456.639 333.83C463.692 336.865 466.613 339.23 470.531 342.963C474.449 346.696 475.589 348.875 476.23 352.494C476.857 356.128 476.529 357.367 473.722 361.1C470.93 364.833 468.436 367.269 462.224 371.144C456.012 375.034 451.567 376.872 442.648 380.519C433.729 384.181 427.987 386.446 417.601 389.41C407.214 392.359 401.003 393.513 390.73 395.294C380.457 397.089 374.73 397.403 366.253 398.357C357.761 399.312 353.757 399.269 348.301 400.067C342.858 400.879 340.778 401.335 338.983 402.361C337.188 403.401 337.344 404.626 339.325 405.21C341.305 405.795 343.371 405.681 348.871 405.296C354.384 404.897 358.317 404.37 366.851 403.23C375.371 402.105 381.113 401.535 391.499 399.625C401.886 397.716 408.198 396.576 418.798 393.698C429.398 390.806 435.197 388.712 444.486 385.193C453.776 381.688 458.349 380.206 465.245 376.145C472.155 372.085 475.532 369.848 478.994 364.904C482.47 359.96 483.468 356.655 482.584 351.412C481.701 346.154 479.364 343.134 474.577 338.674C469.776 334.215 466.342 332.192 458.606 329.086C450.869 325.994 445.398 324.384 435.909 323.173C426.406 321.976 420.849 321.378 411.104 323.073C401.359 324.783 395.574 326.578 387.211 331.693C378.833 336.822 375.328 340.683 369.259 348.676C363.175 356.655 360.482 361.428 356.849 371.615C353.202 381.816 352.09 387.985 351.05 399.64C350.01 411.294 350.409 417.848 351.649 429.873C352.888 441.898 354.185 447.91 357.262 459.75C360.34 471.59 362.819 478.172 367.022 489.072C371.239 499.971 374.203 505.627 378.306 514.233C382.395 522.824 384.091 526.814 387.51 532.071C390.915 537.314 392.554 539.295 395.36 540.506C398.167 541.717 400.091 540.449 401.53 538.112C402.983 535.775 402.826 533.738 402.57 528.823C402.313 523.893 401.373 520.716 400.247 513.521C399.122 506.326 398.381 501.923 396.942 492.833C395.503 483.729 394.833 478.472 393.038 468.042C391.257 457.599 390.06 451.615 388.037 440.673C386.014 429.745 384.931 423.39 382.937 413.374C380.956 403.344 379.588 398.144 378.092 390.578C376.611 382.998 376.525 379.807 375.485 375.518C374.445 371.216 374.16 370.304 372.892 369.079C371.624 367.853 370.199 367.811 369.145 369.378Z" fill="#FFBE52" stroke="#FFBE52" stroke-width="6"/>
</svg>
